# AST/ASF file generated using VICON BodyLanguage
# -----------------------------------------------
:version 1.10
:name VICON
:units
  mass 1.0
  length 0.45
  angle deg
:documentation
   .ast/.asf automatically generated from VICON data using
   VICON BodyBuilder and BodyLanguage model FoxedUp or BRILLIANT.MOD
:root
   order TX TY TZ RX RY RZ
   axis XYZ
   position 0 0 0  
   orientation 0 0 0 
:bonedata
  begin
     id 1 
     name lhipjoint
     direction 0.716248 -0.617586 0.324924 
     length 2.63557 
     axis 0 0 0  XYZ
  end
  begin
     id 2 
     name lfemur
     direction 0.34202 -0.939693 0  
     length 7.01235  
     axis 0 0 20  XYZ
    dof rx ry rz
    limits (-160.0 20.0)
           (-70.0 70.0)
           (-60.0 70.0)
  end
  begin
     id 3 
     name ltibia
     direction 0.34202 -0.939693 0   
     length 8.14348   
     axis 0 0 20   XYZ
    dof rx
    limits (-10.0 170.0)
  end
  begin
     id 4 
     name lfoot
     direction 0.0982064 -0.26982 0.95789   
     length 1.99077   
     axis -90 7.62852e-016 20   XYZ
    dof rx rz
    limits (-45.0 90.0)
           (-70.0 20.0)
  end
  begin
     id 5 
     name ltoes
     direction 1.53511e-011 -4.21891e-011 1   
     length 0.99735   
     axis -90 7.62852e-016 20   XYZ
    dof rx
    limits (-90.0 20.0)
  end
  begin
     id 6 
     name rhipjoint
     direction -0.687828 -0.642391 0.337975   
     length 2.5338  
     axis 0 0 0  XYZ 
  end
  begin
     id 7 
     name rfemur
     direction -0.34202 -0.939693 0   
     length 6.90199   
     axis 0 0 -20   XYZ
    dof rx ry rz
    limits (-160.0 20.0)
           (-70.0 70.0)
           (-70.0 60.0)
  end
  begin
     id 8 
     name rtibia
     direction -0.34202 -0.939693 0   
     length 8.07725   
     axis 0 0 -20   XYZ
    dof rx
    limits (-10.0 170.0)
 end
 begin
     id 9 
     name rfoot
     direction -0.0912384 -0.250675 0.963762   
     length 2.11621  
     axis -90 -7.62852e-016 -20   XYZ
    dof rx rz
    limits (-45.0 90.0)
           (-20.0 70.0)
  end
  begin
     id 10 
     name rtoes
     direction -1.5359e-011 -4.21894e-011 1   
     length 1.06031   
     axis -90 -7.62852e-016 -20   XYZ
    dof rx
    limits (-90.0 20.0)
  end
  begin
     id 11 
     name lowerback
     direction -0.0403572 0.987953 -0.149396   
     length 2.05637   
     axis 0 0 0   XYZ
    dof rx ry rz
    limits (-20.0 45.0)
           (-30.0 30.0)
           (-30.0 30.0)
  end
  begin
     id 12 
     name upperback
     direction -0.00512151 0.997598 0.0690792   
     length 2.01086   
     axis 0 0 0   XYZ
    dof rx ry rz
    limits (-20.0 45.0)
           (-30.0 30.0)
           (-30.0 30.0)
  end
  begin
     id 13 
     name thorax
     direction 0.0136133 0.989392 0.14463   
     length 2.09035   
     axis 0 0 0   XYZ
    dof rx ry rz
    limits (-20.0 45.0)
           (-30.0 30.0)
           (-30.0 30.0)
  end
  begin
     id 14 
     name lowerneck
     direction 0.0250714 0.992811 0.11704   
     length 1.70806   
     axis 0 0 0   XYZ
    dof rx ry rz
    limits (-20.0 45.0)
           (-30.0 30.0)
           (-30.0 30.0)
  end
  begin
     id 15 
     name upperneck
     direction -0.0519205 0.998394 -0.0226787   
     length 1.6689   
     axis 0 0 0   XYZ
    dof rx ry rz
    limits (-20.0 45.0)
           (-30.0 30.0)
           (-30.0 30.0)
  end
  begin
     id 16
     name head
     direction -0.0201693 0.999547 -0.0223192  
     length 1.83412  
     axis 0 0 0   XYZ
    dof rx ry rz
    limits (-20.0 45.0)
           (-30.0 30.0)
           (-30.0 30.0)
  end
  begin
     id 17 
     name lclavicle
     direction 0.89585 0.444077 -0.0157448  
     length 3.39587  
     axis 0 0 0   XYZ
    dof ry rz
    limits (-20.0 10.0)
           (0.0 20.0)
  end
  begin
     id 18 
     name lhumerus
     direction 1 -4.48956e-011 1.99132e-028   
     length 5.79199   
     axis 180 -30 -90   XYZ
    dof rx ry rz
    limits (-60.0 90.0)
           (-90.0 90.0)
           (-90.0 90.0)
  end
  begin
     id 19
     name lradius
     direction 1 -4.48974e-011 8.72912e-028   
     length 3.49908   
     axis 180 -30 -90   XYZ
    dof rx
    limits (-10.0 170.0)
  end
  begin
     id 20
     name lwrist
     direction 1 -4.48994e-011 4.76442e-027   
     length 1.74954   
     axis -3.27502e-015 90 90   XYZ
    dof ry
    limits (-180.0 0.0)
 end
  begin
     id 21 
     name lhand
     direction 1 -4.48945e-011 9.531e-027   
     length 0.593861   
     axis -6.08098e-015 90 90   XYZ
    dof rx rz
    limits (-90.0 90.0)
           (-45.0 45.0)
  end
  begin
     id 22 
     name lfingers
     direction 1 -4.48945e-011 1.9062e-026   
     length 0.478786   
     axis -1.21619e-014 90 90   XYZ
    dof rx
    limits (0.0 90.0)
  end
  begin
     id 23
     name lthumb
     direction 0.707107 -6.34904e-011 0.707107   
     length 0.687444   
     axis -90 45 -9.86923e-015   XYZ
    dof rx rz
    limits (-45.0 45.0)
           (-45.0 45.0)
  end
  begin
     id 24 
     name rclavicle
     direction -0.940466 0.338394 0.0318182   
     length 3.51226  
     axis 0 0 0   XYZ 
    dof ry rz
    limits (-10.0 20.0)
           (-20.0 0.0)
  end
  begin
     id 25 
     name rhumerus
     direction -1 -4.48976e-011 2.0905e-027  
     length 5.73799   
     axis 180 30 90   XYZ
    dof rx ry rz
    limits (-90.0 60.0)
           (-90.0 90.0)
           (-90.0 90.0)
  end
  begin
     id 26 
     name rradius
     direction -1 -4.48968e-011 -9.39692e-029   
     length 3.57916   
     axis 180 30 90   XYZ
    dof rx
    limits (-10.0 170.0)
  end
  begin
     id 27 
     name rwrist
     direction -1 -4.48959e-011 4.7652e-027   
     length 1.78958   
     axis -3.27502e-015 -90 -90   XYZ
    dof ry
    limits (-180.0 0.0)
  end
  begin
     id 28
     name rhand
     direction -1 -4.49042e-011 9.5267e-027   
     length 0.615577   
     axis -6.08098e-015 -90 -90   XYZ
    dof rx rz
    limits (-90.0 90.0)
           (-45.0 45.0)
  end
  begin
     id 29
     name rfingers
     direction -1 -4.48935e-011 1.90629e-026   
     length 0.496294   
     axis -1.21619e-014 -90 -90   XYZ
    dof rx
    limits (0.0 90.0)
  end
  begin
     id 30
     name rthumb
     direction -0.707107 -6.34977e-011 0.707107   
     length 0.712582   
     axis -90 -45 9.86923e-015   XYZ
    dof rx rz
    limits (-45.0 45.0)
           (-45.0 45.0)
  end
:hierarchy
  begin
    root lhipjoint rhipjoint lowerback
    lhipjoint lfemur
    lfemur ltibia
    ltibia lfoot
    lfoot ltoes
    rhipjoint rfemur
    rfemur rtibia
    rtibia rfoot
    rfoot rtoes
    lowerback upperback
    upperback thorax
    thorax lowerneck lclavicle rclavicle
    lowerneck upperneck
    upperneck head
    lclavicle lhumerus
    lhumerus lradius
    lradius lwrist
    lwrist lhand lthumb
    lhand lfingers
    rclavicle rhumerus
    rhumerus rradius
    rradius rwrist
    rwrist rhand rthumb
    rhand rfingers
  end

#!OML:ASF H:\Terrain\Patient Classification 1\PaulMetrics\March17Take5\PaulMetrics.ASF
:FULLY-SPECIFIED
:DEGREES
962
root 14.5757 17.5036 -15.2943 0.0592661 -58.8814 8.76816
lowerback 0.686597 0.742038 -6.58745
upperback -2.79909 0.76978 -1.1393
thorax -3.35787 0.530901 2.48383
lowerneck -7.6527 3.8059 4.68001
upperneck 5.52838 5.09712 -6.88446
head 3.53905 2.35723 -2.86531
rclavicle -4.15584e-014 -1.27222e-014
rhumerus -37.6315 17.9172 -94.8316
rradius 38.6431
rwrist -10.5126
rhand -14.4625 -29.8335
rfingers 7.12502
rthumb 11.6831 -59.4878
lclavicle -4.15584e-014 -1.27222e-014
lhumerus -30.7359 5.47181 79.2225
lradius 31.7193
lwrist 16.63
lhand -8.19711 -17.9141
lfingers 7.12502
lthumb 17.7192 11.2986
rfemur -8.11086 10.5245 13.2157
rtibia 19.3652
rfoot -17.8733 -26.0987
rtoes -9.65017
lfemur -14.467 -5.66929 -15.6838
ltibia 21.2118
lfoot -16.6588 13.3376
ltoes -2.03568
963
root 14.5735 17.5176 -15.2935 -0.0186067 -58.8031 8.82863
lowerback 0.701116 0.700996 -6.63106
upperback -2.81803 0.712303 -1.12023
thorax -3.38168 0.50479 2.52978
lowerneck -7.64091 3.80198 4.47776
upperneck 5.61188 5.10226 -6.67861
head 3.54913 2.36262 -2.75571
rclavicle 1.13323e-014 1.19768e-014
rhumerus -37.8042 18.2552 -95.0979
rradius 38.908
rwrist -11.4816
rhand -14.1001 -31.3588
rfingers 7.12502
rthumb 12.0326 -60.9929
lclavicle 1.13323e-014 1.19768e-014
lhumerus -30.8237 5.35133 79.3519
lradius 31.8493
lwrist 16.568
lhand -9.9917 -19.5168
lfingers 7.12502
lthumb 15.9916 9.84313
rfemur -8.0356 10.5371 13.1506
rtibia 19.3616
rfoot -18.1573 -26.0196
rtoes -9.03451
lfemur -14.388 -5.62341 -15.7555
ltibia 21.1082
lfoot -16.6691 13.4861
ltoes -4.75845
964
root 14.5704 17.5341 -15.2927 0.281249 -58.768 8.41056
lowerback 0.720193 0.690279 -6.39439
upperback -2.81673 0.705796 -1.04963
thorax -3.38657 0.496978 2.47087
lowerneck -7.6771 3.78332 4.28879
upperneck 5.73239 5.08967 -6.51769
head 3.58298 2.35648 -2.66549
rclavicle -1.65876e-014 1.70955e-014
rhumerus -37.7996 18.4464 -95.2847
rradius 38.9023
rwrist -12.2991
rhand -17.2264 -33.275
rfingers 7.12502
rthumb 9.0169 -63.0623
lclavicle -1.65876e-014 1.70955e-014
lhumerus -30.882 5.52162 79.408
lradius 31.9052
lwrist 16.2268
lhand -10.9959 -20.1494
lfingers 7.12502
lthumb 15.0244 9.28553
rfemur -7.93342 10.5199 13.3945
rtibia 19.293
rfoot -18.1963 -26.1775
rtoes -9.41067
lfemur -14.2962 -5.61821 -15.5216
ltibia 21.0372
lfoot -16.3712 13.2438
ltoes -2.12014
965
root 14.5702 17.5451 -15.2926 0.736886 -58.7534 8.00124
lowerback 0.589469 0.675092 -6.15719
upperback -2.85439 0.70194 -0.992241
thorax -3.34745 0.489459 2.39916
lowerneck -7.80922 3.78466 4.40229
upperneck 5.9772 5.09932 -6.67479
head 3.70672 2.35272 -2.74137
rclavicle -2.63157e-014 -1.23743e-014
rhumerus -37.5975 18.3376 -95.2016
rradius 38.6109
rwrist -11.8512
rhand -19.6573 -33.2076
rfingers 7.12502
rthumb 6.67062 -63.0826
lclavicle -2.63157e-014 -1.23743e-014
lhumerus -30.9343 5.65126 79.491
lradius 31.9626
lwrist 15.9785
lhand -11.3631 -20.1843
lfingers 7.12502
lthumb 14.6707 9.27666
rfemur -7.88069 10.4942 13.6129
rtibia 19.0665
rfoot -18.3487 -26.0738
rtoes -8.53097
lfemur -14.4806 -5.63352 -15.2629
ltibia 21.1365
lfoot -16.3297 13.0813
ltoes -0.54952
966
root 14.5716 17.547 -15.2956 0.855398 -58.7244 7.90318
lowerback 0.581738 0.648381 -6.14412
upperback -2.87078 0.666907 -0.976381
thorax -3.35701 0.472476 2.40952
lowerneck -8.12756 3.84341 4.55715
upperneck 6.66489 5.21058 -7.02832
head 3.61858 2.3649 -2.58499
rclavicle 7.91769e-014 8.05078e-015
rhumerus -37.7669 18.6127 -95.3667
rradius 38.8695
rwrist -12.1745
rhand -19.1444 -32.155
rfingers 7.12502
rthumb 7.16574 -62.0137
lclavicle 7.91769e-014 8.05078e-015
lhumerus -30.9967 5.29955 79.6683
lradius 32.1829
lwrist 16.1586
lhand -11.7594 -19.9046
lfingers 7.12502
lthumb 14.2888 9.58374
rfemur -7.68479 10.5976 13.6503
rtibia 18.6653
rfoot -18.8614 -25.894
rtoes -5.89522
lfemur -14.7328 -5.59191 -15.2064
ltibia 21.4523
lfoot -16.144 13.3442
ltoes -4.86639
967
root 14.5741 17.5321 -15.2974 0.902212 -58.6609 7.76113
lowerback 0.585172 0.63663 -6.06821
upperback -2.77799 0.657841 -0.980004
thorax -3.25996 0.461903 2.36454
lowerneck -8.37728 3.87289 4.55067
upperneck 6.73983 5.23863 -6.92669
head 3.68102 2.37775 -2.54654
rclavicle -5.13268e-014 -1.963e-014
rhumerus -37.9412 18.8338 -95.4746
rradius 39.2731
rwrist -12.501
rhand -18.2719 -31.8997
rfingers 7.12502
rthumb 8.00789 -61.728
lclavicle -5.13268e-014 -1.963e-014
lhumerus -30.9055 4.78535 79.821
lradius 32.3918
lwrist 16.4841
lhand -11.8545 -19.5591
lfingers 7.12502
lthumb 14.1972 9.93574
rfemur -7.50267 10.42 13.7833
rtibia 18.3239
rfoot -17.9865 -26.4382
rtoes -9.51781
lfemur -14.8502 -5.57781 -15.1438
ltibia 21.7317
lfoot -15.8747 13.7388
ltoes -10.8602
968
root 14.577 17.5219 -15.2979 0.918384 -58.6156 7.73173
lowerback 0.525756 0.636101 -6.01025
upperback -2.724 0.665451 -0.991197
thorax -3.16956 0.460765 2.32147
lowerneck -8.24883 3.86188 4.35076
upperneck 6.39586 5.21541 -6.71311
head 3.54339 2.37838 -2.45453
rclavicle 1.9512e-014 1.98785e-016
rhumerus -37.9407 18.8648 -95.4426
rradius 39.37
rwrist -12.5215
rhand -18.25 -32.0371
rfingers 7.12502
rthumb 8.02907 -61.8646
lclavicle 1.9512e-014 1.98785e-016
lhumerus -30.8007 4.74904 79.8537
lradius 32.4406
lwrist 16.4944
lhand -11.6775 -19.8381
lfingers 7.12502
lthumb 14.3678 9.64466
rfemur -7.4402 10.3786 13.8295
rtibia 18.1797
rfoot -17.4725 -26.8298
rtoes -12.2613
lfemur -14.9032 -5.62412 -15.1296
ltibia 21.8182
lfoot -15.8339 13.8407
ltoes -12.7884
969
root 14.5781 17.5268 -15.2989 0.949343 -58.5842 7.72688
lowerback 0.561483 0.641345 -5.97354
upperback -2.78855 0.667087 -0.996934
thorax -3.25632 0.463863 2.29402
lowerneck -8.03791 3.85765 4.16543
upperneck 5.93532 5.18358 -6.27261
head 3.71495 2.40213 -2.54906
rclavicle 8.06507e-014 1.55052e-014
rhumerus -37.8023 18.7269 -95.4199
rradius 39.0792
rwrist -12.53
rhand -18.0302 -31.4729
rfingers 7.12502
rthumb 8.24115 -61.2922
lclavicle 8.06507e-014 1.55052e-014
lhumerus -30.8698 4.89864 79.8767
lradius 32.4295
lwrist 16.2419
lhand -11.5339 -20.2675
lfingers 7.12502
lthumb 14.5061 9.20539
rfemur -7.43336 10.7173 13.7836
rtibia 18.2103
rfoot -18.5999 -26.4374
rtoes -7.42622
lfemur -14.9109 -5.67468 -15.1196
ltibia 21.7685
lfoot -15.9237 13.7063
ltoes -12.632
970
root 14.5784 17.5339 -15.2981 0.669293 -58.6242 8.04146
lowerback 0.598316 0.679755 -6.12202
upperback -2.81927 0.708039 -1.05387
thorax -3.31485 0.489003 2.31583
lowerneck -7.9936 3.83025 4.21354
upperneck 5.93982 5.14673 -6.32124
head 3.70965 2.38376 -2.57778
rclavicle -3.75175e-014 1.33186e-014
rhumerus -37.6501 18.5654 -95.3885
rradius 38.7986
rwrist -12.5401
rhand -17.7018 -31.2373
rfingers 7.12502
rthumb 8.55809 -61.0438
lclavicle -3.75175e-014 1.33186e-014
lhumerus -30.9033 4.72677 79.984
lradius 32.4032
lwrist 16.0947
lhand -11.5395 -20.5597
lfingers 7.12502
lthumb 14.5008 8.91357
rfemur -7.4934 10.8791 13.537
rtibia 18.3955
rfoot -19.4 -25.9071
rtoes -3.14988
lfemur -14.779 -5.70553 -15.2971
ltibia 21.5855
lfoot -15.9379 13.6471
ltoes -11.9214
971
root 14.5791 17.5312 -15.2977 0.254399 -58.7035 8.49865
lowerback 0.579102 0.726459 -6.40942
upperback -2.80575 0.763673 -1.09392
thorax -3.30023 0.522631 2.433
lowerneck -8.05259 3.81303 4.39816
upperneck 5.98455 5.12259 -6.5636
head 3.75356 2.3647 -2.69809
rclavicle -3.81667e-014 -7.7526e-015
rhumerus -37.7461 18.551 -95.3314
rradius 38.8408
rwrist -12.638
rhand -17.7474 -31.6533
rfingers 7.12502
rthumb 8.5141 -61.4617
lclavicle -3.81667e-014 -7.7526e-015
lhumerus -30.8493 4.61806 80.0712
lradius 32.3651
lwrist 16.026
lhand -11.4729 -20.6517
lfingers 7.12502
lthumb 14.5649 8.81696
rfemur -7.5117 10.7654 13.2581
rtibia 18.5817
rfoot -19.8281 -25.487
rtoes -1.97899
lfemur -14.6014 -5.61376 -15.5742
ltibia 21.3875
lfoot -15.8107 13.6567
ltoes -10.1498
972
root 14.5805 17.5302 -15.3022 0.428278 -58.6219 8.33623
lowerback 0.572578 0.763337 -6.3529
upperback -2.82594 0.815076 -1.06037
thorax -3.3215 0.54842 2.4341
lowerneck -8.10679 3.74678 4.2815
upperneck 6.03106 5.04094 -6.48567
head 3.76736 2.32325 -2.65416
rclavicle -5.44965e-014 -1.23743e-014
rhumerus -37.908 18.505 -95.2763
rradius 38.9241
rwrist -12.8749
rhand -18.0262 -31.6928
rfingers 7.12502
rthumb 8.24507 -61.512
lclavicle -5.44965e-014 -1.23743e-014
lhumerus -30.7927 4.5008 80.1863
lradius 32.3159
lwrist 15.9765
lhand -11.3963 -20.5692
lfingers 7.12502
lthumb 14.6387 8.89416
rfemur -7.57043 10.5424 13.3991
rtibia 18.7011
rfoot -19.3887 -25.6899
rtoes -5.06074
lfemur -14.6096 -5.59215 -15.4776
ltibia 21.2838
lfoot -15.8276 13.4957
ltoes -5.89184
973
root 14.5821 17.5358 -15.3044 0.858645 -58.4496 7.85587
lowerback 0.637152 0.763152 -6.07064
upperback -2.8789 0.816475 -1.00822
thorax -3.40792 0.546108 2.32907
lowerneck -8.11393 3.67687 4.26542
upperneck 6.08304 4.95405 -6.52464
head 3.78267 2.27749 -2.67073
rclavicle 6.52666e-014 1.89342e-014
rhumerus -37.8491 18.2538 -95.148
rradius 38.6781
rwrist -12.2573
rhand -17.7474 -31.0729
rfingers 7.12502
rthumb 8.51409 -60.8812
lclavicle 6.52666e-014 1.89342e-014
lhumerus -30.8025 4.23395 80.3057
lradius 32.2894
lwrist 16.0125
lhand -11.3138 -20.3609
lfingers 7.12502
lthumb 14.7182 9.09657
rfemur -7.61285 10.4196 13.722
rtibia 18.7537
rfoot -18.7462 -26.1668
rtoes -8.3622
lfemur -14.7092 -5.7457 -15.1779
ltibia 21.2786
lfoot -15.941 13.3338
ltoes -1.98236
974
root 14.5853 17.5331 -15.3037 0.999952 -58.3533 7.70039
lowerback 0.675433 0.67988 -6.01688
upperback -2.92044 0.703459 -0.962309
thorax -3.46265 0.491379 2.35011
lowerneck -7.96635 3.73311 4.39575
upperneck 6.23763 5.05429 -6.92139
head 3.44692 2.29748 -2.54078
rclavicle 1.67898e-013 2.5842e-015
rhumerus -37.593 17.8449 -94.8475
rradius 38.3243
rwrist -10.003
rhand -15.7273 -31.3358
rfingers 7.12502
rthumb 10.4633 -61.0554
lclavicle 1.67898e-013 2.5842e-015
lhumerus -30.9182 3.96071 80.3649
lradius 32.4621
lwrist 16.2647
lhand -11.3163 -20.0062
lfingers 7.12502
lthumb 14.7158 9.45149
rfemur -7.56748 10.4615 13.7971
rtibia 18.6911
rfoot -19.4288 -26.0397
rtoes -5.81282
lfemur -14.7807 -5.92629 -15.0686
ltibia 21.3572
lfoot -16.0679 13.1993
ltoes -0.699072
975
root 14.5901 17.5274 -15.3034 0.938202 -58.2947 7.83335
lowerback 0.62526 0.667489 -6.04635
upperback -2.92086 0.688991 -0.983029
thorax -3.43375 0.483748 2.34627
lowerneck -7.80794 3.76422 4.43302
upperneck 5.74715 5.06301 -6.74828
head 3.6278 2.33482 -2.7735
rclavicle -1.05618e-013 6.90777e-015
rhumerus -37.5732 17.5896 -94.7712
rradius 38.2946
rwrist -9.28907
rhand -14.526 -32.1732
rfingers 7.12502
rthumb 11.6219 -61.8309
lclavicle -1.05618e-013 6.90777e-015
lhumerus -30.9305 3.62983 80.4934
lradius 32.6198
lwrist 16.5012
lhand -11.3642 -20.0809
lfingers 7.12502
lthumb 14.6696 9.38013
rfemur -7.52825 10.5365 13.6836
rtibia 18.5453
rfoot -19.9337 -25.8384
rtoes -2.98143
lfemur -14.8706 -6.04896 -15.1276
ltibia 21.466
lfoot -16.3565 12.8586
ltoes 0.530377
